<svg xmlns="http://www.w3.org/2000/svg" fill="none" viewBox="0 0 219 230"><path fill="#13232F" d="M173.62 230c-10.09 0-19.797-3.382-27.762-9.755-9.278-7.42-15.102-18-16.4-29.79h.008a44.751 44.751 0 0 1-.139-5.347c.404-11.852 5.414-22.839 14.106-30.934l.007-.005c14.698-10.999 23.324-27.735 24.946-48.402.333-4.255.27-8.542-.193-12.74-3.541-32.189-29.661-57.39-62.109-59.922-18.054-1.409-35.58 4.274-49.344 16.006C42.974 60.843 34.613 77.216 33.2 95.216a68.116 68.116 0 0 0 .194 12.743c3.541 32.188 29.661 57.391 62.108 59.923a67.848 67.848 0 0 0 34.41-6.36l.053-.083.085-.136.137.284-.08.039-.071.034c-5.346 8.567-7.684 18.781-6.585 28.781.28 2.554.782 5.088 1.489 7.532l.025.088-.088.021a99.806 99.806 0 0 1-31.744 2.594h-.2C44.696 196.905 5.866 159.421.598 111.542A100.998 100.998 0 0 1 .31 92.646c2.102-26.758 14.53-51.098 34.993-68.538C55.768 6.668 81.82-1.782 108.66.314c48.23 3.764 87.06 41.246 92.328 89.125.686 6.24.783 12.596.289 18.892-1.049 13.371-4.681 26.157-10.795 38.004-5.902 11.439-13.864 21.538-23.663 30.013l-.065.06a2.775 2.775 0 0 1-.238.189c-.094.071-.184.138-.262.216-.161.161-.301.295-.434.421-.353.335-.631.6-1.098 1.18a11.41 11.41 0 0 0-2.47 8.456 11.43 11.43 0 0 0 4.25 7.722c4.963 3.971 12.243 3.174 16.224-1.774a11.413 11.413 0 0 0 2.471-8.458 11.44 11.44 0 0 0-4.249-7.72 11.477 11.477 0 0 0-3.584-1.946l-.154-.049.055-.168.056.017a100.457 100.457 0 0 0 20.409-25.849l.048.026.051-.076a39.773 39.773 0 0 1 3.359 2.411h.018l.025.019c9.497 7.274 15.451 17.839 16.761 29.75 1.297 11.788-2.088 23.375-9.533 32.625-7.432 9.235-18.044 15.034-29.881 16.328-1.657.182-3.314.27-4.958.272Z"/></svg>